<!DOCTYPE svg PUBLIC "-//W3C//DTD SVG 1.1//EN" "http://www.w3.org/Graphics/SVG/1.1/DTD/svg11.dtd">
<!-- Uploaded to: SVG Repo, www.svgrepo.com, Transformed by: SVG Repo Mixer Tools -->
<svg version="1.1" id="_x32_" xmlns="http://www.w3.org/2000/svg" xmlns:xlink="http://www.w3.org/1999/xlink" viewBox="-51.2 -51.2 614.40 614.40" xml:space="preserve" width="800px" height="800px" fill="#000000" transform="matrix(1, 0, 0, 1, 0, 0)rotate(0)" stroke="#000000" stroke-width="0.00512">
<g id="SVGRepo_bgCarrier" stroke-width="0"/>
<g id="SVGRepo_tracerCarrier" stroke-linecap="round" stroke-linejoin="round" stroke="#CCCCCC" stroke-width="2.048"/>
<g id="SVGRepo_iconCarrier"> <style type="text/css"> .st0{fill:#000000;} </style> <g> <path class="st0" d="M430.337,231.065H81.674c-29.701,0-53.858,24.16-53.858,53.862v49.884v15.976l15.806,2.262 c9.135,1.31,16.03,9.258,16.03,18.483c0,9.225-6.891,17.173-16.022,18.482l-15.814,2.262v15.978v49.892 c0,29.693,24.157,53.854,53.858,53.854h348.663c29.701,0,53.862-24.161,53.862-53.854v-49.558V391l-17.571-0.822 c-9.982-0.463-17.808-8.655-17.808-18.645c0-9.982,7.826-18.174,17.815-18.646l17.564-0.83v-17.58v-49.55 C484.199,255.225,460.038,231.065,430.337,231.065z M465.765,334.477c-19.686,0.936-35.371,17.14-35.371,37.056 c0,19.923,15.685,36.135,35.371,37.055v49.558c0,19.565-15.864,35.428-35.428,35.428H81.674c-19.569,0-35.432-15.863-35.432-35.428 v-49.892c17.991-2.579,31.836-18.011,31.836-36.722c0-18.703-13.846-34.135-31.836-36.721v-49.884 c0-19.573,15.863-35.436,35.432-35.436h348.663c19.564,0,35.428,15.863,35.428,35.436V334.477z"/> <rect x="133.621" y="439.419" class="st0" width="12.19" height="31.8"/> <rect x="133.621" y="383.564" class="st0" width="12.19" height="31.792"/> <rect x="133.621" y="327.7" class="st0" width="12.19" height="31.8"/> <rect x="133.621" y="271.846" class="st0" width="12.19" height="31.799"/> <polygon class="st0" points="111.245,180.758 100.592,186.68 116.053,214.461 126.702,208.539 "/> <path class="st0" d="M497.524,179.025l-24.095-43.311l-8.558-15.36l-15.749,7.826c-8.948,4.442-19.768,1.09-24.617-7.639 c-4.865-8.721-2.001-19.687,6.492-24.95l14.952-9.266l-8.558-15.368l-24.088-43.294C398.863,1.714,366.006-7.658,340.047,6.79 L35.374,176.299c-25.955,14.44-35.318,47.305-20.878,73.256l0.875,1.578c3.27-6.394,7.43-12.243,12.324-17.409 c-4.803-15.643,1.762-33.044,16.636-41.326l304.681-169.51c17.1-9.518,38.674-3.368,48.192,13.732l24.088,43.302 c-16.751,10.38-22.575,32.182-12.895,49.582c9.681,17.401,31.271,23.942,48.925,15.172l24.095,43.312 c7.273,13.056,5.337,28.692-3.571,39.601c4.776,3.961,8.989,8.558,12.65,13.569C505.4,224.524,508.979,199.615,497.524,179.025z"/> </g> </g>
</svg>